<mxfile host="app.diagrams.net" modified="2023-04-19T00:19:40.316Z" agent="Mozilla/5.0 (Windows NT 10.0; Win64; x64) AppleWebKit/537.36 (KHTML, like Gecko) Chrome/112.0.0.0 Safari/537.36" etag="MnBXdFnW-pEt-XHhcvVY" version="21.1.8" type="device">
  <diagram name="Página-1" id="cQrOpJ8rYeWk8kJ6Zh6D">
    <mxGraphModel dx="2022" dy="1511" grid="1" gridSize="10" guides="1" tooltips="1" connect="1" arrows="1" fold="1" page="0" pageScale="1" pageWidth="827" pageHeight="1169" math="0" shadow="0">
      <root>
        <mxCell id="0" />
        <mxCell id="1" parent="0" />
        <mxCell id="02K2QJqWkWTaOgCLWT1P-42" value="Curso" style="whiteSpace=wrap;html=1;align=center;" parent="1" vertex="1">
          <mxGeometry x="-340" y="-210" width="100" height="40" as="geometry" />
        </mxCell>
        <mxCell id="02K2QJqWkWTaOgCLWT1P-44" value="Disciplina" style="shape=ext;margin=3;double=1;whiteSpace=wrap;html=1;align=center;" parent="1" vertex="1">
          <mxGeometry x="-610" y="-70" width="100" height="40" as="geometry" />
        </mxCell>
        <mxCell id="02K2QJqWkWTaOgCLWT1P-49" value="Possui" style="shape=rhombus;perimeter=rhombusPerimeter;whiteSpace=wrap;html=1;align=center;" parent="1" vertex="1">
          <mxGeometry x="-350" y="-80" width="120" height="60" as="geometry" />
        </mxCell>
        <mxCell id="02K2QJqWkWTaOgCLWT1P-50" value="Gerencia" style="shape=rhombus;perimeter=rhombusPerimeter;whiteSpace=wrap;html=1;align=center;" parent="1" vertex="1">
          <mxGeometry x="-350" y="-350" width="120" height="60" as="geometry" />
        </mxCell>
        <mxCell id="02K2QJqWkWTaOgCLWT1P-57" value="Departamento" style="whiteSpace=wrap;html=1;align=center;" parent="1" vertex="1">
          <mxGeometry x="-340" y="-470" width="100" height="40" as="geometry" />
        </mxCell>
        <mxCell id="02K2QJqWkWTaOgCLWT1P-59" value="Aluno" style="whiteSpace=wrap;html=1;align=center;" parent="1" vertex="1">
          <mxGeometry x="-70" y="-70" width="100" height="40" as="geometry" />
        </mxCell>
        <mxCell id="02K2QJqWkWTaOgCLWT1P-62" value="" style="endArrow=none;html=1;rounded=0;exitX=0.5;exitY=1;exitDx=0;exitDy=0;entryX=0.5;entryY=0;entryDx=0;entryDy=0;" parent="1" source="02K2QJqWkWTaOgCLWT1P-57" target="02K2QJqWkWTaOgCLWT1P-50" edge="1">
          <mxGeometry relative="1" as="geometry">
            <mxPoint x="-300" y="-200" as="sourcePoint" />
            <mxPoint x="-140" y="-200" as="targetPoint" />
          </mxGeometry>
        </mxCell>
        <mxCell id="02K2QJqWkWTaOgCLWT1P-63" value="" style="endArrow=none;html=1;rounded=0;exitX=0.5;exitY=1;exitDx=0;exitDy=0;entryX=0.5;entryY=0;entryDx=0;entryDy=0;" parent="1" source="02K2QJqWkWTaOgCLWT1P-50" target="02K2QJqWkWTaOgCLWT1P-42" edge="1">
          <mxGeometry relative="1" as="geometry">
            <mxPoint x="-300" y="-200" as="sourcePoint" />
            <mxPoint x="-140" y="-200" as="targetPoint" />
          </mxGeometry>
        </mxCell>
        <mxCell id="02K2QJqWkWTaOgCLWT1P-64" value="" style="endArrow=none;html=1;rounded=0;exitX=0.5;exitY=1;exitDx=0;exitDy=0;entryX=0.5;entryY=0;entryDx=0;entryDy=0;" parent="1" source="02K2QJqWkWTaOgCLWT1P-42" target="02K2QJqWkWTaOgCLWT1P-49" edge="1">
          <mxGeometry relative="1" as="geometry">
            <mxPoint x="-300" y="-200" as="sourcePoint" />
            <mxPoint x="-290" y="-90" as="targetPoint" />
          </mxGeometry>
        </mxCell>
        <mxCell id="02K2QJqWkWTaOgCLWT1P-66" value="" style="endArrow=none;html=1;rounded=0;exitX=1;exitY=0.5;exitDx=0;exitDy=0;entryX=0;entryY=0.5;entryDx=0;entryDy=0;" parent="1" source="02K2QJqWkWTaOgCLWT1P-44" target="02K2QJqWkWTaOgCLWT1P-49" edge="1">
          <mxGeometry relative="1" as="geometry">
            <mxPoint x="-300" y="-200" as="sourcePoint" />
            <mxPoint x="-140" y="-200" as="targetPoint" />
          </mxGeometry>
        </mxCell>
        <mxCell id="02K2QJqWkWTaOgCLWT1P-67" value="" style="endArrow=none;html=1;rounded=0;exitX=1;exitY=0.5;exitDx=0;exitDy=0;entryX=0;entryY=0.5;entryDx=0;entryDy=0;" parent="1" source="02K2QJqWkWTaOgCLWT1P-49" target="02K2QJqWkWTaOgCLWT1P-59" edge="1">
          <mxGeometry relative="1" as="geometry">
            <mxPoint x="-300" y="-200" as="sourcePoint" />
            <mxPoint x="-140" y="-200" as="targetPoint" />
          </mxGeometry>
        </mxCell>
        <mxCell id="02K2QJqWkWTaOgCLWT1P-68" value="(1,1)" style="text;strokeColor=none;fillColor=none;spacingLeft=4;spacingRight=4;overflow=hidden;rotatable=0;points=[[0,0.5],[1,0.5]];portConstraint=eastwest;fontSize=12;whiteSpace=wrap;html=1;" parent="1" vertex="1">
          <mxGeometry x="-280" y="-430" width="40" height="30" as="geometry" />
        </mxCell>
        <mxCell id="02K2QJqWkWTaOgCLWT1P-69" value="(1,n)" style="text;strokeColor=none;fillColor=none;spacingLeft=4;spacingRight=4;overflow=hidden;rotatable=0;points=[[0,0.5],[1,0.5]];portConstraint=eastwest;fontSize=12;whiteSpace=wrap;html=1;" parent="1" vertex="1">
          <mxGeometry x="-280" y="-250" width="40" height="30" as="geometry" />
        </mxCell>
        <mxCell id="02K2QJqWkWTaOgCLWT1P-70" value="(1,1)" style="text;strokeColor=none;fillColor=none;spacingLeft=4;spacingRight=4;overflow=hidden;rotatable=0;points=[[0,0.5],[1,0.5]];portConstraint=eastwest;fontSize=12;whiteSpace=wrap;html=1;" parent="1" vertex="1">
          <mxGeometry x="-340" y="-170" width="40" height="30" as="geometry" />
        </mxCell>
        <mxCell id="02K2QJqWkWTaOgCLWT1P-71" value="(1,1)" style="text;strokeColor=none;fillColor=none;spacingLeft=4;spacingRight=4;overflow=hidden;rotatable=0;points=[[0,0.5],[1,0.5]];portConstraint=eastwest;fontSize=12;whiteSpace=wrap;html=1;" parent="1" vertex="1">
          <mxGeometry x="-110" y="-90" width="40" height="30" as="geometry" />
        </mxCell>
        <mxCell id="02K2QJqWkWTaOgCLWT1P-72" value="(1,n)" style="text;strokeColor=none;fillColor=none;spacingLeft=4;spacingRight=4;overflow=hidden;rotatable=0;points=[[0,0.5],[1,0.5]];portConstraint=eastwest;fontSize=12;whiteSpace=wrap;html=1;" parent="1" vertex="1">
          <mxGeometry x="-510" y="-90" width="40" height="30" as="geometry" />
        </mxCell>
        <mxCell id="02K2QJqWkWTaOgCLWT1P-74" value="(1,n)" style="text;strokeColor=none;fillColor=none;spacingLeft=4;spacingRight=4;overflow=hidden;rotatable=0;points=[[0,0.5],[1,0.5]];portConstraint=eastwest;fontSize=12;whiteSpace=wrap;html=1;" parent="1" vertex="1">
          <mxGeometry x="-270" y="-170" width="40" height="30" as="geometry" />
        </mxCell>
        <mxCell id="WZSxPOPf_o4dPYr0GriE-1" value="Curso" style="shape=ext;margin=3;double=1;whiteSpace=wrap;html=1;align=center;" vertex="1" parent="1">
          <mxGeometry x="380" y="-200" width="100" height="40" as="geometry" />
        </mxCell>
        <mxCell id="WZSxPOPf_o4dPYr0GriE-21" value="Disciplina" style="shape=ext;margin=3;double=1;whiteSpace=wrap;html=1;align=center;" vertex="1" parent="1">
          <mxGeometry x="380" y="70" width="100" height="40" as="geometry" />
        </mxCell>
        <mxCell id="WZSxPOPf_o4dPYr0GriE-22" value="Contém" style="shape=rhombus;perimeter=rhombusPerimeter;whiteSpace=wrap;html=1;align=center;" vertex="1" parent="1">
          <mxGeometry x="370" y="-70" width="120" height="60" as="geometry" />
        </mxCell>
        <mxCell id="WZSxPOPf_o4dPYr0GriE-23" value="Gerencia" style="shape=rhombus;perimeter=rhombusPerimeter;whiteSpace=wrap;html=1;align=center;" vertex="1" parent="1">
          <mxGeometry x="370" y="-340" width="120" height="60" as="geometry" />
        </mxCell>
        <mxCell id="WZSxPOPf_o4dPYr0GriE-24" value="Departamento" style="whiteSpace=wrap;html=1;align=center;" vertex="1" parent="1">
          <mxGeometry x="380" y="-460" width="100" height="40" as="geometry" />
        </mxCell>
        <mxCell id="WZSxPOPf_o4dPYr0GriE-25" value="Aluno" style="whiteSpace=wrap;html=1;align=center;" vertex="1" parent="1">
          <mxGeometry x="380" y="310" width="100" height="40" as="geometry" />
        </mxCell>
        <mxCell id="WZSxPOPf_o4dPYr0GriE-26" value="" style="endArrow=none;html=1;rounded=0;exitX=0.5;exitY=1;exitDx=0;exitDy=0;entryX=0.5;entryY=0;entryDx=0;entryDy=0;" edge="1" parent="1" source="WZSxPOPf_o4dPYr0GriE-24" target="WZSxPOPf_o4dPYr0GriE-23">
          <mxGeometry relative="1" as="geometry">
            <mxPoint x="420" y="-190" as="sourcePoint" />
            <mxPoint x="580" y="-190" as="targetPoint" />
          </mxGeometry>
        </mxCell>
        <mxCell id="WZSxPOPf_o4dPYr0GriE-27" value="" style="endArrow=none;html=1;rounded=0;exitX=0.5;exitY=1;exitDx=0;exitDy=0;" edge="1" parent="1" source="WZSxPOPf_o4dPYr0GriE-23">
          <mxGeometry relative="1" as="geometry">
            <mxPoint x="420" y="-190" as="sourcePoint" />
            <mxPoint x="430" y="-200" as="targetPoint" />
          </mxGeometry>
        </mxCell>
        <mxCell id="WZSxPOPf_o4dPYr0GriE-28" value="" style="endArrow=none;html=1;rounded=0;exitX=0.5;exitY=1;exitDx=0;exitDy=0;entryX=0.5;entryY=0;entryDx=0;entryDy=0;" edge="1" parent="1" target="WZSxPOPf_o4dPYr0GriE-22">
          <mxGeometry relative="1" as="geometry">
            <mxPoint x="430" y="-160" as="sourcePoint" />
            <mxPoint x="430" y="-80" as="targetPoint" />
          </mxGeometry>
        </mxCell>
        <mxCell id="WZSxPOPf_o4dPYr0GriE-29" value="" style="endArrow=none;html=1;rounded=0;exitX=0.5;exitY=0;exitDx=0;exitDy=0;entryX=0.5;entryY=1;entryDx=0;entryDy=0;" edge="1" parent="1" source="WZSxPOPf_o4dPYr0GriE-21" target="WZSxPOPf_o4dPYr0GriE-22">
          <mxGeometry relative="1" as="geometry">
            <mxPoint x="420" y="-190" as="sourcePoint" />
            <mxPoint x="580" y="-190" as="targetPoint" />
          </mxGeometry>
        </mxCell>
        <mxCell id="WZSxPOPf_o4dPYr0GriE-31" value="(1,1)" style="text;strokeColor=none;fillColor=none;spacingLeft=4;spacingRight=4;overflow=hidden;rotatable=0;points=[[0,0.5],[1,0.5]];portConstraint=eastwest;fontSize=12;whiteSpace=wrap;html=1;" vertex="1" parent="1">
          <mxGeometry x="440" y="-420" width="40" height="30" as="geometry" />
        </mxCell>
        <mxCell id="WZSxPOPf_o4dPYr0GriE-32" value="(1,n)" style="text;strokeColor=none;fillColor=none;spacingLeft=4;spacingRight=4;overflow=hidden;rotatable=0;points=[[0,0.5],[1,0.5]];portConstraint=eastwest;fontSize=12;whiteSpace=wrap;html=1;" vertex="1" parent="1">
          <mxGeometry x="440" y="-240" width="40" height="30" as="geometry" />
        </mxCell>
        <mxCell id="WZSxPOPf_o4dPYr0GriE-33" value="(1,1)" style="text;strokeColor=none;fillColor=none;spacingLeft=4;spacingRight=4;overflow=hidden;rotatable=0;points=[[0,0.5],[1,0.5]];portConstraint=eastwest;fontSize=12;whiteSpace=wrap;html=1;" vertex="1" parent="1">
          <mxGeometry x="440" y="-150" width="40" height="30" as="geometry" />
        </mxCell>
        <mxCell id="WZSxPOPf_o4dPYr0GriE-34" value="(1,n)" style="text;strokeColor=none;fillColor=none;spacingLeft=4;spacingRight=4;overflow=hidden;rotatable=0;points=[[0,0.5],[1,0.5]];portConstraint=eastwest;fontSize=12;whiteSpace=wrap;html=1;" vertex="1" parent="1">
          <mxGeometry x="440" y="270" width="40" height="30" as="geometry" />
        </mxCell>
        <mxCell id="WZSxPOPf_o4dPYr0GriE-35" value="(1,n)" style="text;strokeColor=none;fillColor=none;spacingLeft=4;spacingRight=4;overflow=hidden;rotatable=0;points=[[0,0.5],[1,0.5]];portConstraint=eastwest;fontSize=12;whiteSpace=wrap;html=1;" vertex="1" parent="1">
          <mxGeometry x="440" y="140" width="40" height="30" as="geometry" />
        </mxCell>
        <mxCell id="WZSxPOPf_o4dPYr0GriE-36" value="(1,n)" style="text;strokeColor=none;fillColor=none;spacingLeft=4;spacingRight=4;overflow=hidden;rotatable=0;points=[[0,0.5],[1,0.5]];portConstraint=eastwest;fontSize=12;whiteSpace=wrap;html=1;" vertex="1" parent="1">
          <mxGeometry x="430" y="30" width="40" height="30" as="geometry" />
        </mxCell>
        <mxCell id="WZSxPOPf_o4dPYr0GriE-37" value="&lt;font style=&quot;font-size: 20px;&quot;&gt;Correção&lt;/font&gt;" style="text;strokeColor=none;fillColor=none;spacingLeft=4;spacingRight=4;overflow=hidden;rotatable=0;points=[[0,0.5],[1,0.5]];portConstraint=eastwest;fontSize=12;whiteSpace=wrap;html=1;" vertex="1" parent="1">
          <mxGeometry x="240" y="-480" width="110" height="30" as="geometry" />
        </mxCell>
        <mxCell id="WZSxPOPf_o4dPYr0GriE-38" value="Possui" style="shape=rhombus;perimeter=rhombusPerimeter;whiteSpace=wrap;html=1;align=center;" vertex="1" parent="1">
          <mxGeometry x="370" y="180" width="120" height="60" as="geometry" />
        </mxCell>
        <mxCell id="WZSxPOPf_o4dPYr0GriE-40" value="" style="endArrow=none;html=1;rounded=0;exitX=0.5;exitY=1;exitDx=0;exitDy=0;entryX=0.5;entryY=0;entryDx=0;entryDy=0;" edge="1" parent="1" source="WZSxPOPf_o4dPYr0GriE-21" target="WZSxPOPf_o4dPYr0GriE-38">
          <mxGeometry relative="1" as="geometry">
            <mxPoint x="290" y="200" as="sourcePoint" />
            <mxPoint x="450" y="200" as="targetPoint" />
          </mxGeometry>
        </mxCell>
        <mxCell id="WZSxPOPf_o4dPYr0GriE-41" value="" style="endArrow=none;html=1;rounded=0;entryX=0.5;entryY=1;entryDx=0;entryDy=0;exitX=0.5;exitY=0;exitDx=0;exitDy=0;" edge="1" parent="1" source="WZSxPOPf_o4dPYr0GriE-25" target="WZSxPOPf_o4dPYr0GriE-38">
          <mxGeometry relative="1" as="geometry">
            <mxPoint x="290" y="200" as="sourcePoint" />
            <mxPoint x="450" y="200" as="targetPoint" />
          </mxGeometry>
        </mxCell>
      </root>
    </mxGraphModel>
  </diagram>
</mxfile>
